<svg version="1.1" width="86" height="86" xmlns="http://www.w3.org/2000/svg">
 <defs>
  <radialGradient id="g" gradientUnits="userSpaceOnUse" cx="0" cy="0" r="122">
   <stop offset="0" stop-color="#e58a02"/>
   <stop offset="1" stop-color="#e2463e"/>
  </radialGradient>
  <path id="t" d="M 0,0 v 54 c 0,3.31 3.31,6 6,6 h 16 c 3.31,0 6,-3.31 6,-6 v -54 h -6 v 53 c 0,0.55 -0.55,1 -1,1 h -14 c -0.55,0 -1,-0.55 -1,-1 v -53 h -6 Z" fill="white"/>
  <rect id="r" width="14" height="12" fill="white"/>
 </defs>

 <rect width="100%" height="100%" fill="url(#g)"/>
 <use href="#r" x="20" y="54" opacity="0.4"/>
 <use href="#r" x="20" y="41" opacity="0.6"/>
 <use href="#r" x="20" y="28" opacity="0.4"/>
 <use href="#r" x="20" y="15" opacity="0.6"/>
 <use href="#r" x="52" y="54" opacity="0.6"/>
 <use href="#r" x="52" y="41" opacity="0.4"/>
 <use href="#r" x="52" y="28" opacity="0.6"/>
 <use href="#r" x="52" y="15" opacity="0.4"/>
 <use href="#t" transform="translate(13 13)"/>
 <use href="#t" transform="translate(45 13)"/>
</svg>
