<svg 
xmlns="http://www.w3.org/2000/svg" 
width="80" height="70"
stroke="none">
 <path id="stroke_in" d="M 40,69 C 27.7,55.85 19.15,40.3 14,22 L 30,25 C 27.1,15.85 21.95,8.3 16.8,0.9 L 19,1.4 C 24.15,8.8 29.1,17.45 32,26.6 L 18,24 C 22.36,39.57 29.59,52.81 40,64 C 50.41,52.81 57.64,39.57 62,24 L 48,26.6 C 50.9,17.45 55.85,8.8 61,1.4 L 63.2,0.9 C 58.05,8.3 52.9,15.85 50,25 L 66,22 C 60.85,40.3 52.3,55.85 40,69 Z" fill="#ffff00"/>
 <path id="body_in" d="M 19,1.4 C 24.15,8.8 29.1,17.45 32,26.6 L 18,24 C 22.36,39.57 29.59,52.81 40,64 C 50.41,52.81 57.64,39.57 62,24 L 48,26.6 C 50.9,17.45 55.85,8.8 61,1.4 C 47,4 33,4 19,1.4 Z" fill="#ffff00" opacity="0.5"/>
 <path id="stroke_out" d="M 40,1 C 32.7,19.3 24.15,34.85 14,48 L 30,45 C 27.1,54.15 21.95,61.7 16.8,69.1 L 19,68.6 C 24.15,61.2 29.1,52.55 32,43.4 L 18,46 C 26.59,34.81 33.82,21.57 40,6 C 46.18,21.57 53.41,34.81 62,46 L 48,43.4 C 50.9,52.55 55.85,61.2 61,68.6 L 63.2,69.1 C 58.05,61.7 52.9,54.15 50,45 L 66,48 C 55.85,34.85 47.3,19.3 40,1 Z" fill="#7fff00"/>
 <path id="body_out" d="M 19,68.6 C 24.15,61.2 29.1,52.55 32,43.4 L 18,46 C 26.59,34.81 33.82,21.57 40,6 C 46.18,21.57 53.41,34.81 62,46 L 48,43.4 C 50.9,52.55 55.85,61.2 61,68.6 C 47,66 33,66 19,68.6 Z" fill="#7fff00" opacity="0.5"/>
</svg>
