<svg xmlns:xlink="http://www.w3.org/1999/xlink" xmlns="http://www.w3.org/2000/svg" width="200" height="200">
 <defs>
  <path id="sec" d="M100,100 L199.619,91.284 L199.619,108.716 L100,100 Z"/>
  <linearGradient id="g1" x1="0" y1="0" x2="1" y2="0">
   <stop offset="0" stop-color="#ff309d" stop-opacity="1"/>
   <stop offset="0.85" stop-color="#ff309d" stop-opacity="0"/>
  </linearGradient>
  <linearGradient id="g2" x1="0" y1="0" x2="1" y2="0">
   <stop offset="0" stop-color="#fffa60" stop-opacity="1"/>
   <stop offset="0.95" stop-color="#fffa60" stop-opacity="0"/>
  </linearGradient>
 </defs>
 <g id="flower">
 <use xlink:href="#sec" fill="url(#g1)" transform="rotate(0 100 100)"/>
 <use xlink:href="#sec" fill="url(#g1)" transform="rotate(20 100 100)"/>
 <use xlink:href="#sec" fill="url(#g1)" transform="rotate(40 100 100)"/>
 <use xlink:href="#sec" fill="url(#g1)" transform="rotate(60 100 100)"/>
 <use xlink:href="#sec" fill="url(#g1)" transform="rotate(80 100 100)"/>
 <use xlink:href="#sec" fill="url(#g1)" transform="rotate(100 100 100)"/>
 <use xlink:href="#sec" fill="url(#g1)" transform="rotate(120 100 100)"/>
 <use xlink:href="#sec" fill="url(#g1)" transform="rotate(140 100 100)"/>
 <use xlink:href="#sec" fill="url(#g1)" transform="rotate(160 100 100)"/>
 <use xlink:href="#sec" fill="url(#g1)" transform="rotate(180 100 100)"/>
 <use xlink:href="#sec" fill="url(#g1)" transform="rotate(200 100 100)"/>
 <use xlink:href="#sec" fill="url(#g1)" transform="rotate(220 100 100)"/>
 <use xlink:href="#sec" fill="url(#g1)" transform="rotate(240 100 100)"/>
 <use xlink:href="#sec" fill="url(#g1)" transform="rotate(260 100 100)"/>
 <use xlink:href="#sec" fill="url(#g1)" transform="rotate(280 100 100)"/>
 <use xlink:href="#sec" fill="url(#g1)" transform="rotate(300 100 100)"/>
 <use xlink:href="#sec" fill="url(#g1)" transform="rotate(320 100 100)"/>
 <use xlink:href="#sec" fill="url(#g1)" transform="rotate(340 100 100)"/>
 <use xlink:href="#sec" fill="url(#g2)" transform="rotate(10 100 100)"/>
 <use xlink:href="#sec" fill="url(#g2)" transform="rotate(30 100 100)"/>
 <use xlink:href="#sec" fill="url(#g2)" transform="rotate(50 100 100)"/>
 <use xlink:href="#sec" fill="url(#g2)" transform="rotate(70 100 100)"/>
 <use xlink:href="#sec" fill="url(#g2)" transform="rotate(90 100 100)"/>
 <use xlink:href="#sec" fill="url(#g2)" transform="rotate(110 100 100)"/>
 <use xlink:href="#sec" fill="url(#g2)" transform="rotate(130 100 100)"/>
 <use xlink:href="#sec" fill="url(#g2)" transform="rotate(150 100 100)"/>
 <use xlink:href="#sec" fill="url(#g2)" transform="rotate(170 100 100)"/>
 <use xlink:href="#sec" fill="url(#g2)" transform="rotate(190 100 100)"/>
 <use xlink:href="#sec" fill="url(#g2)" transform="rotate(210 100 100)"/>
 <use xlink:href="#sec" fill="url(#g2)" transform="rotate(230 100 100)"/>
 <use xlink:href="#sec" fill="url(#g2)" transform="rotate(250 100 100)"/>
 <use xlink:href="#sec" fill="url(#g2)" transform="rotate(270 100 100)"/>
 <use xlink:href="#sec" fill="url(#g2)" transform="rotate(290 100 100)"/>
 <use xlink:href="#sec" fill="url(#g2)" transform="rotate(310 100 100)"/>
 <use xlink:href="#sec" fill="url(#g2)" transform="rotate(330 100 100)"/>
 <use xlink:href="#sec" fill="url(#g2)" transform="rotate(350 100 100)"/>
 <animateTransform 
  attributeName="transform" 
  type="rotate" 
  from="0 100 100" 
  to="360 100 100"
  dur="15s"
  repeatCount="indefinite"
 />
 </g>
</svg>
