<?xml version="1.0" standalone="no"?>
<!DOCTYPE svg PUBLIC "-//W3C//DTD SVG 1.1//EN" "http://www.w3.org/Graphics/SVG/1.1/DTD/svg11.dtd">
<svg xmlns="http://www.w3.org/2000/svg" version="1.1" width="48.75" height="48.75" viewBox="0 -48.75 48.75 48.75">
 <g id="Gear" transform="scale(1 -1)" stroke-width="1.5" stroke-linecap="round" stroke-linejoin="miter" stroke="#ffffff" fill="none">
  <ellipse rx="2.337" ry="2.337" transform="translate(24.375 24.375)" stroke-opacity="0.6"/>
  <path d="M 30.517,39.048 L 30.138,38.759 C 28.813,37.744 27.217,38.172 26.575,39.712 L 26.394,40.154 C 25.279,42.835 23.471,42.836 22.357,40.153 L 22.175,39.714 C 21.534,38.172 19.938,37.745 18.613,38.76 L 18.234,39.049 C 15.929,40.815 14.362,39.91 14.738,37.03 L 14.8,36.558 C 15.017,34.903 13.848,33.734 12.194,33.95 L 11.721,34.013 C 8.841,34.39 7.935,32.822 9.703,30.517 L 9.991,30.138 C 11.006,28.813 10.578,27.217 9.038,26.575 L 8.596,26.394 C 5.915,25.279 5.914,23.471 8.597,22.356 L 9.036,22.175 C 10.578,21.534 11.005,19.937 9.99,18.613 L 9.701,18.234 C 7.935,15.929 8.84,14.362 11.72,14.738 L 12.192,14.8 C 13.847,15.017 15.016,13.848 14.8,12.193 L 14.737,11.721 C 14.36,8.841 15.928,7.935 18.233,9.702 L 18.612,9.991 C 19.937,11.006 21.533,10.578 22.175,9.038 L 22.356,8.596 C 23.471,5.915 25.279,5.914 26.394,8.597 L 26.575,9.036 C 27.216,10.578 28.813,11.005 30.137,9.99 L 30.516,9.701 C 32.821,7.935 34.388,8.84 34.012,11.72 L 33.95,12.192 C 33.733,13.847 34.902,15.016 36.557,14.8 L 37.029,14.737 C 39.909,14.36 40.815,15.928 39.048,18.233 L 38.759,18.612 C 37.744,19.937 38.172,21.533 39.712,22.175 L 40.154,22.356 C 42.836,23.471 42.836,25.279 40.153,26.394 L 39.714,26.575 C 38.172,27.216 37.745,28.813 38.76,30.137 L 39.049,30.516 C 40.815,32.821 39.91,34.388 37.03,34.012 L 36.558,33.95 C 34.903,33.733 33.734,34.902 33.95,36.557 L 34.013,37.029 C 34.39,39.909 32.822,40.815 30.517,39.048 Z" stroke-opacity="0.6"/>
  <path d="M 28.604,21.699 C 29.094,22.475 29.379,23.393 29.378,24.378 C 29.379,25.358 29.095,26.277 28.604,27.053 L 32.823,31.274 C 34.827,28.817 35.751,25.512 35.06,22.17 C 34.692,20.385 33.907,18.793 32.827,17.475 L 28.604,21.699 Z M 22.168,13.689 C 20.383,14.058 18.791,14.844 17.472,15.922 L 21.698,20.148 C 22.473,19.656 23.393,19.373 24.374,19.373 C 25.359,19.373 26.277,19.657 27.051,20.148 L 31.274,15.926 C 28.817,13.921 25.511,12.999 22.168,13.689 Z M 13.687,26.58 C 14.057,28.366 14.842,29.958 15.923,31.277 L 20.146,27.053 C 19.656,26.278 19.371,25.361 19.371,24.377 C 19.371,23.394 19.654,22.475 20.147,21.7 L 15.923,17.475 C 13.919,19.931 12.998,23.238 13.687,26.58 Z M 24.377,29.381 C 23.392,29.38 22.473,29.096 21.697,28.606 L 17.475,32.825 C 19.933,34.829 23.236,35.751 26.579,35.063 C 28.364,34.693 29.956,33.906 31.275,32.828 L 27.052,28.606 C 26.277,29.097 25.36,29.379 24.377,29.381 Z"/>
 </g>
</svg>
