<svg xmlns:xlink="http://www.w3.org/1999/xlink" xmlns="http://www.w3.org/2000/svg" version="1.1" fill-rule="evenodd" width="80" height="180">
 <defs>
   <path id="shade" d="M 6.999,163.972 L 6.999,25.427 C 6.999,21.985 11.558,20.894 12.078,17.886 C 12.314,16.518 10.679,14.689 10.679,13.299 C 10.679,10.263 22.648,6.999 39.999,6.999 C 57.35,6.999 69.319,10.263 69.319,13.299 C 69.319,14.689 67.684,16.518 67.92,17.886 C 68.44,20.894 72.999,21.985 72.999,25.427 L 72.999,163.972 C 72.999,168.424 68.55,172.999 64.098,172.999 L 15.9,172.999 C 11.448,172.999 6.999,168.424 6.999,163.972 Z M 65.999,160.937 L 65.999,28.434 C 65.999,25.358 61.234,23.975 60.566,20.973 C 60.399,20.218 60.47,19.529 60.65,18.841 C 55.895,20.154 48.412,20.999 39.999,20.999 C 31.586,20.999 24.103,20.154 19.35,18.841 C 19.53,19.529 19.599,20.218 19.434,20.973 C 18.766,23.975 13.999,25.358 13.999,28.434 L 13.999,160.937 C 13.999,163.937 16.199,165.999 19.199,165.999 L 60.799,165.999 C 63.799,165.999 65.999,163.937 65.999,160.937 Z M 61.644,15.499 C 60.915,14.771 52.143,12.957 39.999,12.999 C 27.855,12.957 19.083,14.771 18.354,15.499 C 16.823,17.01 27.855,19.001 39.999,18.999 C 52.143,19.001 63.175,17.01 61.644,15.499 Z"/>
  <linearGradient id="BottleSide" gradientUnits="userSpaceOnUse" x1="14" y1="100" x2="66.0" y2="100">
   <stop offset="0" stop-color="#ffffff" stop-opacity="15%"/>
   <stop offset="0.2" stop-color="#ffffff" stop-opacity="6.6%"/> 
   <stop offset="1" stop-color="#000000" stop-opacity="53.12%"/>
  </linearGradient>
  <linearGradient id="BottleShine" gradientUnits="userSpaceOnUse" x1="25" y1="58" x2="25" y2="120">
   <stop offset="0" stop-color="#ffffff" stop-opacity="40%"/>
   <stop offset="1" stop-color="#ffffff" stop-opacity="0%"/>
  </linearGradient>
  <linearGradient id="CorkSide" gradientUnits="userSpaceOnUse" x1="11.781" y1="15" x2="62.277" y2="15">
   <stop offset="0" stop-color="#00d5d5"/>
   <stop offset="0.265" stop-color="#00e8e8"/>
   <stop offset="1" stop-color="#006060"/>
  </linearGradient>
  <radialGradient id="CorkTop" gradientUnits="userSpaceOnUse" cx="0" cy="0" r="36.851" gradientTransform="translate(28.495 8.789) rotate(-3.75285) scale(1 -0.391997)">
   <stop offset="0" stop-color="#00ffff"/>
   <stop offset="0.388" stop-color="#00e2e2"/>
   <stop offset="1" stop-color="#007676"/>
  </radialGradient>
 </defs>

 <use id="shade_red" fill="#ff0000" xlink:href="#shade"/>
 <use id="shade_gray" fill="#aaaaaa" xlink:href="#shade"/>
 <use id="shade_yellow" fill="#ffff00" xlink:href="#shade"/>
 <use id="shade_green" fill="#7fff00" xlink:href="#shade"/>
 <use id="shade_blue" fill="#00efef" xlink:href="#shade"/>

 <g id="shine" stroke="none" fill="url(#BottleShine)">
  <path d="M 22.071,36.747 C 22.047,35.531 22.029,34.301 22.165,33.099 C 22.425,30.795 23.237,28.791 25.187,26.835 C 26.265,25.752 28.019,25.751 29.1,26.828 C 30.181,27.905 29.861,29.695 29.107,30.74 C 28.507,31.572 28.088,32.68 27.832,33.733 C 27.595,34.712 27.536,35.743 27.604,36.747 C 27.604,38.273 26.364,39.513 24.837,39.513 C 23.311,39.513 22.071,38.273 22.071,36.747 Z"/>
  <path d="M 22.071,132.485 L 22.071,45.507 C 22.071,43.98 23.311,42.74 24.837,42.74 C 26.364,42.74 27.604,43.98 27.604,45.507 L 27.604,132.485 L 22.071,132.485 Z"/>
 </g>

 <g id="side" stroke="none" fill="url(#BottleSide)">
  <path d="M 66,160.939 L 66,28.435 C 66,25.359 61.234,23.976 60.566,20.973 C 60.4,20.219 60.47,19.529 60.65,18.842 C 55.896,20.155 48.413,21 40,21 C 31.587,21 24.104,20.155 19.35,18.842 C 19.53,19.529 19.6,20.219 19.434,20.973 C 18.766,23.976 14,25.359 14,28.435 L 14,160.939 C 14,163.939 16.2,166 19.2,166 L 60.8,166 C 63.8,166 66,163.939 66,160.939 Z"/>
 </g>

 <g id="bottle" fill="#b2b2b2" stroke-width="1" stroke="#444444" stroke-linecap="round" stroke-linejoin="round">
  <path d="M 10,161.933 L 10,27.068 C 10,23.625 14.559,22.535 15.079,19.527 C 15.315,18.159 14,16.889 14,15.5 C 14,12.464 25.649,10 40,10 C 54.351,10 66,12.464 66,15.5 C 66,16.889 64.685,18.159 64.921,19.527 C 65.441,22.535 70,23.625 70,27.068 L 70,161.933 C 70,166.385 66.511,170 62.059,170 L 17.941,170 C 13.489,170 10,166.385 10,161.933 Z M 66,160.939 L 66,28.435 C 66,25.359 61.234,23.976 60.566,20.973 C 60.4,20.219 60.47,19.529 60.65,18.842 C 55.896,20.155 48.413,21 40,21 C 31.587,21 24.104,20.155 19.35,18.842 C 19.53,19.529 19.6,20.219 19.434,20.973 C 18.766,23.976 14,25.359 14,28.435 L 14,160.939 C 14,163.939 16.2,166 19.2,166 L 60.8,166 C 63.8,166 66,163.939 66,160.939 Z M 61.645,15.5 C 60.916,14.772 52.144,12.957 40,13 C 27.856,12.957 19.084,14.772 18.355,15.5 C 16.824,17.011 27.856,19.001 40,19 C 52.144,19.001 63.176,17.011 61.645,15.5 Z"/>
 </g>

 <g id="cork" stroke="none">
   <path d="M 9.501,11.137 C 9.536,9.781 10.464,7.812 10.843,7.228 C 12.519,3.999 23.904,2.084 40,2.084 C 56.096,2.084 67.481,3.999 69.157,7.228 C 69.536,7.812 70.464,9.781 70.499,11.137 C 70.544,12.856 69.745,15.694 68.377,17.085 C 64.087,20.599 56.403,21.695 40,21.695 C 23.597,21.695 15.913,20.599 11.623,17.085 C 10.255,15.694 9.456,12.856 9.501,11.137 Z" fill="url(#CorkSide)"/>
   <ellipse cx="40" cy="7.428" rx="26" ry="4.828" fill="url(#CorkTop)"/>
 </g>

</svg>
